<?xml version="1.0" standalone="no"?>
<!DOCTYPE svg PUBLIC "-//W3C//DTD SVG 20010904//EN"
 "http://www.w3.org/TR/2001/REC-SVG-20010904/DTD/svg10.dtd">
<svg version="1.0" xmlns="http://www.w3.org/2000/svg"
 width="129.000000pt" height="129.000000pt" viewBox="0 0 129.000000 129.000000"
 preserveAspectRatio="xMidYMid meet">

<g transform="translate(0.000000,129.000000) scale(0.100000,-0.100000)"
fill="#000000" stroke="none">
<path d="M482 1270 c-352 -95 -557 -461 -452 -805 52 -168 170 -310 321 -384
122 -59 192 -74 319 -68 178 8 308 65 431 188 120 121 182 276 182 454 -1 171
-66 325 -189 449 -122 120 -251 175 -429 182 -88 3 -125 0 -183 -16z m84 -422
l45 -42 -25 -25 -26 -25 -33 32 c-42 41 -65 40 -108 -4 -42 -44 -63 -56 -83
-48 -31 12 -17 50 38 103 50 46 59 51 101 51 40 0 51 -5 91 -42z m297 31 c35
-18 97 -82 97 -100 0 -9 -6 -22 -14 -28 -18 -15 -40 -5 -80 38 -53 56 -61 51
-271 -160 -105 -105 -202 -197 -217 -205 -65 -34 -158 -7 -198 58 -34 56 -22
149 25 188 14 12 14 14 -1 31 -16 18 -15 19 39 19 l57 0 0 -56 c0 -51 -2 -55
-16 -43 -14 11 -19 10 -35 -10 -43 -52 -7 -131 59 -131 35 0 49 12 222 186
102 102 199 195 215 205 34 21 85 25 118 8z m207 -164 c-11 -13 -9 -19 8 -38
26 -28 52 -88 52 -122 0 -40 -37 -104 -73 -125 -39 -24 -106 -26 -151 -5 -17
8 -76 60 -131 115 l-99 99 24 26 24 25 106 -105 c97 -95 110 -105 144 -105 46
0 86 36 86 78 0 38 -37 85 -61 79 -17 -5 -19 1 -19 44 l0 49 51 0 c45 0 50 -2
39 -15z"/>
</g>
</svg>
