<svg xmlns="http://www.w3.org/2000/svg" viewBox="0 0 296.53 74"><defs><style>.cls-1{fill:#7db34f;}.cls-2{fill:#2b3330;}</style></defs><g id="图层_2" data-name="图层 2"><g id="图层_2-2" data-name="图层 2"><path class="cls-1" d="M31.78,63.88A30.6,30.6,0,0,1,9.33,54.44,31,31,0,0,1,0,31.9,30.92,30.92,0,0,1,9.33,9.39,30.74,30.74,0,0,1,31.82,0,30.56,30.56,0,0,1,54.27,9.4a30.93,30.93,0,0,1,9.29,22.5,31,31,0,0,1-9.33,22.54A30.6,30.6,0,0,1,31.78,63.88Zm0-56.37a23.15,23.15,0,0,0-17.16,7.18A23.33,23.33,0,0,0,7.51,31.9a23.42,23.42,0,0,0,7.16,17.25,23,23,0,0,0,17.11,7.21,23,23,0,0,0,17.11-7.21A23.43,23.43,0,0,0,56.05,31.9a23.41,23.41,0,0,0-7.12-17.22A23,23,0,0,0,31.82,7.51Z"/><path class="cls-1" d="M88.31,63.72a20.93,20.93,0,0,1-15-6A20,20,0,0,1,67,42.85V41.59h7.52v1.26a12.53,12.53,0,0,0,4,9.43,13.47,13.47,0,0,0,9.82,3.92,13.72,13.72,0,0,0,9.93-3.94,12.51,12.51,0,0,0,4.06-9.49,15.33,15.33,0,0,0-2.14-7.72,10.66,10.66,0,0,0-5.08-4.83L87.69,27.1l6.48-5a6.63,6.63,0,0,0,2-2.68A8.86,8.86,0,0,0,97,15.69,7.54,7.54,0,0,0,94.58,10a8,8,0,0,0-5.91-2.45,8.39,8.39,0,0,0-6.09,2.58,8.72,8.72,0,0,0-2.76,6.18l-7.51-.23a16.07,16.07,0,0,1,5-11.32A15.75,15.75,0,0,1,88.67.08,15.42,15.42,0,0,1,99.86,4.69a15,15,0,0,1,4.69,11,16.48,16.48,0,0,1-1.46,6.75,15.39,15.39,0,0,1-1.64,2.83,19.25,19.25,0,0,1,5.24,6.07,23,23,0,0,1,3.12,11.43,19.92,19.92,0,0,1-6.38,14.92A21.21,21.21,0,0,1,88.31,63.72Z"/><path class="cls-2" d="M248.16,38.05V16.85l-5.46,2.3V23.7c-.29-.33-.57-.66-.89-1a21.68,21.68,0,1,0,0,30.65c.32-.31.6-.65.89-1v6.42h5.46V38.05ZM226.49,54.3A16.26,16.26,0,1,1,242.7,37.14V39A16.24,16.24,0,0,1,226.49,54.3Z"/><path class="cls-2" d="M290.18,22.72a21.68,21.68,0,0,0-30.64,0c-.32.32-.6.65-.89,1V17.29l-5.46,2.3V38.05h0V70.16h5.46V52.39c.29.33.57.67.89,1a21.67,21.67,0,1,0,30.64-30.65ZM274.86,54.3A16.24,16.24,0,0,1,258.65,39V37.14A16.24,16.24,0,1,1,274.86,54.3Z"/><path class="cls-2" d="M144.36,39.63a15.41,15.41,0,0,0-4-2.06l-2.52-.9h0l-.1,0-.56-.2-1.49-.58c-1.07-.39-2-.71-2.76-1l-2.66-1a10,10,0,0,1-2.56-1.32,7.11,7.11,0,0,1-1.85-2,5.61,5.61,0,0,1-.66-2.95,5.4,5.4,0,0,1,2.08-4.59c1.5-1.17,3.93-1.77,7.23-1.77,8.22,0,8.79,3.16,9,4.35l5.38-.79c-.7-3.87-3.76-8.48-14.38-8.48-4.65,0-8.28,1-10.79,3a10.05,10.05,0,0,0-4,8.31A9.88,9.88,0,0,0,121.14,33a12,12,0,0,0,3.19,3.43,15.75,15.75,0,0,0,4,2.07c.91.31,1.74.61,2.52.9h0l.13,0,.53.19,1.49.58c1.08.39,2,.72,2.78,1l2.65.94A10.15,10.15,0,0,1,141,43.49a7,7,0,0,1,1.85,2,5.6,5.6,0,0,1,.67,2.95A5.39,5.39,0,0,1,141.4,53c-1.5,1.18-3.93,1.77-7.22,1.77-8.23,0-8.8-3.16-9-4.34l-5.37.79c.69,3.87,3.76,8.48,14.38,8.48,4.64,0,8.27-1,10.79-3a10.05,10.05,0,0,0,4-8.3,9.94,9.94,0,0,0-1.38-5.38A12.17,12.17,0,0,0,144.36,39.63Z"/><polygon class="cls-2" points="188.33 51.76 180.3 18.85 175.55 18.85 167.63 51.33 158.13 18.85 151.35 18.85 163.62 57.24 172.45 57.24 177.92 30.49 183.4 57.24 183.66 57.24 192.23 57.24 192.49 57.24 204.76 18.85 197.97 18.85 188.33 51.76"/><polygon class="cls-2" points="149.5 2.15 149.5 6.6 114.68 6.6 116.7 13.12 149.5 13.12 154.56 13.12 158 13.12 149.5 2.15"/><polygon class="cls-1" points="248.16 69.55 246.14 63.02 213.34 63.02 208.28 63.02 204.84 63.02 213.34 74 213.34 69.55 248.16 69.55"/></g></g></svg>