<?xml version="1.0" encoding="utf-8"?>
<!-- Generator: Adobe Illustrator 25.3.0, SVG Export Plug-In . SVG Version: 6.00 Build 0)  -->
<svg version="1.1" id="Layer_1" xmlns="http://www.w3.org/2000/svg" xmlns:xlink="http://www.w3.org/1999/xlink" x="0px" y="0px"
	 viewBox="0 0 1352.4 399.6" style="enable-background:new 0 0 1352.4 399.6;" xml:space="preserve">
<style type="text/css">
	.st0{fill:url(#SVGID_1_);}
	.st1{fill:url(#SVGID_2_);}
	.st2{fill:url(#SVGID_3_);}
	.st3{fill:url(#SVGID_4_);}
	.st4{fill:url(#SVGID_5_);}
	.st5{fill:url(#SVGID_6_);}
	.st6{fill:url(#SVGID_7_);}
	.st7{fill:url(#SVGID_8_);}
	.st8{fill:url(#SVGID_9_);}
	.st9{fill:url(#SVGID_10_);}
	.st10{fill:url(#SVGID_11_);}
	.st11{fill:url(#SVGID_12_);}
	.st12{fill:url(#SVGID_13_);}
	.st13{fill:url(#SVGID_14_);}
	.st14{fill:url(#SVGID_15_);}
	.st15{fill:url(#SVGID_16_);}
	.st16{fill:none;}
	.st17{fill:url(#SVGID_17_);}
	.st18{fill:url(#SVGID_18_);}
	.st19{fill:url(#SVGID_19_);}
	.st20{fill:url(#SVGID_20_);}
	.st21{fill:url(#SVGID_21_);}
	.st22{fill:url(#SVGID_22_);}
	.st23{fill:url(#SVGID_23_);}
	.st24{fill:url(#SVGID_24_);}
	.st25{fill:url(#SVGID_25_);}
	.st26{fill:url(#SVGID_26_);}
	.st27{fill:url(#SVGID_27_);}
	.st28{fill:url(#SVGID_28_);}
	.st29{fill:url(#SVGID_29_);}
	.st30{fill:url(#SVGID_30_);}
	.st31{fill:url(#SVGID_31_);}
	.st32{fill:url(#SVGID_32_);}
	.st33{fill:url(#SVGID_33_);}
	.st34{fill:url(#SVGID_34_);}
	.st35{fill:url(#SVGID_35_);}
	.st36{fill:url(#SVGID_36_);}
	.st37{fill:url(#SVGID_37_);}
	.st38{fill:url(#SVGID_38_);}
	.st39{fill:url(#SVGID_39_);}
	.st40{fill:url(#SVGID_40_);}
	.st41{fill:url(#SVGID_41_);}
	.st42{fill:url(#SVGID_42_);}
	.st43{fill:url(#SVGID_43_);}
	.st44{fill:url(#SVGID_44_);}
	.st45{fill:url(#SVGID_45_);}
	.st46{fill:url(#SVGID_46_);}
	.st47{fill:url(#SVGID_47_);}
	.st48{fill:url(#SVGID_48_);}
	.st49{fill:url(#SVGID_49_);}
	.st50{fill:url(#SVGID_50_);}
	.st51{fill:url(#SVGID_51_);}
	.st52{fill:url(#SVGID_52_);}
</style>
<g id="synapseNodes_1_">
	
		<radialGradient id="SVGID_1_" cx="-881.5197" cy="701.6561" r="178.2502" gradientTransform="matrix(0.9717 0 0 -0.9754 1029.8016 884.1757)" gradientUnits="userSpaceOnUse">
		<stop  offset="0" style="stop-color:#00A2E9"/>
		<stop  offset="0" style="stop-color:#FF00FF"/>
		<stop  offset="1" style="stop-color:#734CE2"/>
	</radialGradient>
	<path class="st0" d="M172.8,0C162.9,0,155,8,155,17.9c0,9.9,8,17.9,17.8,17.9s17.8-8,17.8-17.9C190.6,8,182.6,0,172.8,0z"/>
	
		<radialGradient id="SVGID_2_" cx="-881.5197" cy="701.6561" r="178.2502" gradientTransform="matrix(0.9717 0 0 -0.9754 1029.8016 884.1757)" gradientUnits="userSpaceOnUse">
		<stop  offset="0" style="stop-color:#00A2E9"/>
		<stop  offset="0" style="stop-color:#FF00FF"/>
		<stop  offset="1" style="stop-color:#734CE2"/>
	</radialGradient>
	<path class="st1" d="M172.8,9.8c4.4,0,8,3.6,8,8s-3.6,8-8,8s-8-3.6-8-8S168.3,9.8,172.8,9.8z"/>
	
		<radialGradient id="SVGID_3_" cx="-881.5197" cy="701.6561" r="178.2502" gradientTransform="matrix(0.9717 0 0 -0.9754 1029.8016 884.1757)" gradientUnits="userSpaceOnUse">
		<stop  offset="0" style="stop-color:#00A2E9"/>
		<stop  offset="0" style="stop-color:#FF00FF"/>
		<stop  offset="1" style="stop-color:#734CE2"/>
	</radialGradient>
	<path class="st2" d="M96.2,47.4c-9.8,0-17.8,8-17.8,17.9c0,9.9,8,17.9,17.8,17.9c9.8,0,17.8-8,17.8-17.9S106,47.4,96.2,47.4z"/>
	
		<radialGradient id="SVGID_4_" cx="-881.5197" cy="701.6561" r="178.2502" gradientTransform="matrix(0.9717 0 0 -0.9754 1029.8016 884.1757)" gradientUnits="userSpaceOnUse">
		<stop  offset="0" style="stop-color:#00A2E9"/>
		<stop  offset="0" style="stop-color:#FF00FF"/>
		<stop  offset="1" style="stop-color:#734CE2"/>
	</radialGradient>
	<path class="st3" d="M251.1,48.3c-9.8,0-17.8,8-17.8,17.9s8,17.9,17.8,17.9c9.8,0,17.8-8,17.8-17.9S261,48.3,251.1,48.3z"/>
	
		<radialGradient id="SVGID_5_" cx="-881.5197" cy="701.6561" r="178.2502" gradientTransform="matrix(0.9717 0 0 -0.9754 1029.8016 884.1757)" gradientUnits="userSpaceOnUse">
		<stop  offset="0" style="stop-color:#00A2E9"/>
		<stop  offset="0" style="stop-color:#FF00FF"/>
		<stop  offset="1" style="stop-color:#734CE2"/>
	</radialGradient>
	<path class="st4" d="M96.2,57.2c4.4,0,8,3.6,8,8s-3.6,8-8,8c-4.4,0-8-3.6-8-8S91.8,57.2,96.2,57.2z"/>
	
		<radialGradient id="SVGID_6_" cx="-881.5197" cy="701.6561" r="178.2502" gradientTransform="matrix(0.9717 0 0 -0.9754 1029.8016 884.1757)" gradientUnits="userSpaceOnUse">
		<stop  offset="0" style="stop-color:#00A2E9"/>
		<stop  offset="0" style="stop-color:#FF00FF"/>
		<stop  offset="1" style="stop-color:#734CE2"/>
	</radialGradient>
	<path class="st5" d="M251.1,58.1c4.4,0,8,3.6,8,8c0,4.4-3.6,8-8,8c-4.4,0-8-3.6-8-8C243.1,61.7,246.7,58.1,251.1,58.1z"/>
	
		<radialGradient id="SVGID_7_" cx="-881.5197" cy="701.6561" r="178.2502" gradientTransform="matrix(0.9717 0 0 -0.9754 1029.8016 884.1757)" gradientUnits="userSpaceOnUse">
		<stop  offset="0" style="stop-color:#00A2E9"/>
		<stop  offset="0" style="stop-color:#FF00FF"/>
		<stop  offset="1" style="stop-color:#734CE2"/>
	</radialGradient>
	<path class="st6" d="M172.8,88.5c-11.3,0-20.5,9.2-20.5,20.6s9.2,20.6,20.5,20.6c11.3,0,20.5-9.2,20.5-20.6S184.1,88.5,172.8,88.5z
		"/>
	
		<radialGradient id="SVGID_8_" cx="-881.5197" cy="701.6561" r="178.2502" gradientTransform="matrix(0.9717 0 0 -0.9754 1029.8016 884.1757)" gradientUnits="userSpaceOnUse">
		<stop  offset="0" style="stop-color:#00A2E9"/>
		<stop  offset="0" style="stop-color:#FF00FF"/>
		<stop  offset="1" style="stop-color:#734CE2"/>
	</radialGradient>
	<path class="st7" d="M17.8,91.2C8,91.2,0,99.2,0,109.1s8,17.9,17.8,17.9c9.8,0,17.8-8,17.8-17.9S27.6,91.2,17.8,91.2z"/>
	
		<radialGradient id="SVGID_9_" cx="-881.5197" cy="701.6561" r="178.2502" gradientTransform="matrix(0.9717 0 0 -0.9754 1029.8016 884.1757)" gradientUnits="userSpaceOnUse">
		<stop  offset="0" style="stop-color:#00A2E9"/>
		<stop  offset="0" style="stop-color:#FF00FF"/>
		<stop  offset="1" style="stop-color:#734CE2"/>
	</radialGradient>
	<path class="st8" d="M328.6,91.2c-9.8,0-17.8,8-17.8,17.9s8,17.9,17.8,17.9c9.8,0,17.8-8,17.8-17.9S338.4,91.2,328.6,91.2z"/>
	
		<radialGradient id="SVGID_10_" cx="-881.5197" cy="701.6561" r="178.2502" gradientTransform="matrix(0.9717 0 0 -0.9754 1029.8016 884.1757)" gradientUnits="userSpaceOnUse">
		<stop  offset="0" style="stop-color:#00A2E9"/>
		<stop  offset="0" style="stop-color:#FF00FF"/>
		<stop  offset="1" style="stop-color:#734CE2"/>
	</radialGradient>
	<path class="st9" d="M172.8,98.3c5.9,0,10.7,4.8,10.7,10.7c0,5.9-4.8,10.7-10.7,10.7c-5.9,0-10.7-4.8-10.7-10.7
		C162.1,103.1,166.9,98.3,172.8,98.3z"/>
	
		<radialGradient id="SVGID_11_" cx="-881.5197" cy="701.6561" r="178.2502" gradientTransform="matrix(0.9717 0 0 -0.9754 1029.8016 884.1757)" gradientUnits="userSpaceOnUse">
		<stop  offset="0" style="stop-color:#00A2E9"/>
		<stop  offset="0" style="stop-color:#FF00FF"/>
		<stop  offset="1" style="stop-color:#734CE2"/>
	</radialGradient>
	<path class="st10" d="M17.8,101c4.4,0,8,3.6,8,8s-3.6,8-8,8c-4.4,0-8-3.6-8-8S13.4,101,17.8,101z"/>
	
		<radialGradient id="SVGID_12_" cx="-881.5197" cy="701.6561" r="178.2502" gradientTransform="matrix(0.9717 0 0 -0.9754 1029.8016 884.1757)" gradientUnits="userSpaceOnUse">
		<stop  offset="0" style="stop-color:#00A2E9"/>
		<stop  offset="0" style="stop-color:#FF00FF"/>
		<stop  offset="1" style="stop-color:#734CE2"/>
	</radialGradient>
	<path class="st11" d="M328.6,101c4.4,0,8,3.6,8,8s-3.6,8-8,8c-4.4,0-8-3.6-8-8S324.2,101,328.6,101z"/>
	
		<radialGradient id="SVGID_13_" cx="-881.5197" cy="701.6561" r="178.2502" gradientTransform="matrix(0.9717 0 0 -0.9754 1029.8016 884.1757)" gradientUnits="userSpaceOnUse">
		<stop  offset="0" style="stop-color:#00A2E9"/>
		<stop  offset="0" style="stop-color:#FF00FF"/>
		<stop  offset="1" style="stop-color:#734CE2"/>
	</radialGradient>
	<path class="st12" d="M93.5,133.2c-11.3,0-20.5,9.2-20.5,20.6s9.2,20.6,20.5,20.6c11.3,0,20.5-9.2,20.5-20.6
		S104.8,133.2,93.5,133.2z"/>
	
		<radialGradient id="SVGID_14_" cx="-881.5197" cy="701.6561" r="178.2502" gradientTransform="matrix(0.9717 0 0 -0.9754 1029.8016 884.1757)" gradientUnits="userSpaceOnUse">
		<stop  offset="0" style="stop-color:#00A2E9"/>
		<stop  offset="0" style="stop-color:#FF00FF"/>
		<stop  offset="1" style="stop-color:#734CE2"/>
	</radialGradient>
	<path class="st13" d="M251.1,133.2c-11.3,0-20.5,9.2-20.5,20.6s9.2,20.6,20.5,20.6c11.3,0,20.5-9.2,20.5-20.6
		S262.4,133.2,251.1,133.2z"/>
	
		<radialGradient id="SVGID_15_" cx="-881.5197" cy="701.6561" r="178.2502" gradientTransform="matrix(0.9717 0 0 -0.9754 1029.8016 884.1757)" gradientUnits="userSpaceOnUse">
		<stop  offset="0" style="stop-color:#00A2E9"/>
		<stop  offset="0" style="stop-color:#FF00FF"/>
		<stop  offset="1" style="stop-color:#734CE2"/>
	</radialGradient>
	<path class="st14" d="M93.5,143c5.9,0,10.7,4.8,10.7,10.7c0,5.9-4.8,10.7-10.7,10.7c-5.9,0-10.7-4.8-10.7-10.7
		C82.8,147.8,87.6,143,93.5,143z"/>
	
		<radialGradient id="SVGID_16_" cx="-881.5197" cy="701.6561" r="178.2502" gradientTransform="matrix(0.9717 0 0 -0.9754 1029.8016 884.1757)" gradientUnits="userSpaceOnUse">
		<stop  offset="0" style="stop-color:#00A2E9"/>
		<stop  offset="0" style="stop-color:#FF00FF"/>
		<stop  offset="1" style="stop-color:#734CE2"/>
	</radialGradient>
	<path class="st15" d="M251.1,143c5.9,0,10.7,4.8,10.7,10.7c0,5.9-4.8,10.7-10.7,10.7s-10.7-4.8-10.7-10.7
		C240.4,147.8,245.2,143,251.1,143z"/>
	<path class="st16" d="M173.7,174.3c-13.8,0-24.9,11.2-24.9,25c0,13.8,11.2,25,24.9,25c13.8,0,24.9-11.2,24.9-25
		C198.6,185.5,187.4,174.3,173.7,174.3z"/>
	
		<radialGradient id="SVGID_17_" cx="-881.5197" cy="701.6561" r="178.2502" gradientTransform="matrix(0.9717 0 0 -0.9754 1029.8016 884.1757)" gradientUnits="userSpaceOnUse">
		<stop  offset="0" style="stop-color:#00A2E9"/>
		<stop  offset="0" style="stop-color:#FF00FF"/>
		<stop  offset="1" style="stop-color:#734CE2"/>
	</radialGradient>
	<path class="st17" d="M17.8,181.5c-9.8,0-17.8,8-17.8,17.9c0,9.9,8,17.9,17.8,17.9c9.8,0,17.8-8,17.8-17.9
		C35.6,189.5,27.6,181.5,17.8,181.5z"/>
	
		<radialGradient id="SVGID_18_" cx="-881.5197" cy="701.6561" r="178.2502" gradientTransform="matrix(0.9717 0 0 -0.9754 1029.8016 884.1757)" gradientUnits="userSpaceOnUse">
		<stop  offset="0" style="stop-color:#00A2E9"/>
		<stop  offset="0" style="stop-color:#FF00FF"/>
		<stop  offset="1" style="stop-color:#734CE2"/>
	</radialGradient>
	<path class="st18" d="M328.6,181.5c-9.8,0-17.8,8-17.8,17.9c0,9.9,8,17.9,17.8,17.9c9.8,0,17.8-8,17.8-17.9
		C346.4,189.5,338.4,181.5,328.6,181.5z"/>
	
		<radialGradient id="SVGID_19_" cx="-881.5197" cy="701.6561" r="178.2502" gradientTransform="matrix(0.9717 0 0 -0.9754 1029.8016 884.1757)" gradientUnits="userSpaceOnUse">
		<stop  offset="0" style="stop-color:#00A2E9"/>
		<stop  offset="0" style="stop-color:#FF00FF"/>
		<stop  offset="1" style="stop-color:#734CE2"/>
	</radialGradient>
	<path class="st19" d="M173.7,184.1c8.4,0,15.1,6.8,15.1,15.2c0,8.4-6.8,15.2-15.1,15.2c-8.4,0-15.1-6.8-15.1-15.2
		C158.5,190.9,165.3,184.1,173.7,184.1z"/>
	
		<radialGradient id="SVGID_20_" cx="-881.5197" cy="701.6561" r="178.2502" gradientTransform="matrix(0.9717 0 0 -0.9754 1029.8016 884.1757)" gradientUnits="userSpaceOnUse">
		<stop  offset="0" style="stop-color:#00A2E9"/>
		<stop  offset="0" style="stop-color:#FF00FF"/>
		<stop  offset="1" style="stop-color:#734CE2"/>
	</radialGradient>
	<path class="st20" d="M17.8,191.3c4.4,0,8,3.6,8,8s-3.6,8-8,8c-4.4,0-8-3.6-8-8S13.4,191.3,17.8,191.3z"/>
	
		<radialGradient id="SVGID_21_" cx="-881.5197" cy="701.6561" r="178.2502" gradientTransform="matrix(0.9717 0 0 -0.9754 1029.8016 884.1757)" gradientUnits="userSpaceOnUse">
		<stop  offset="0" style="stop-color:#00A2E9"/>
		<stop  offset="0" style="stop-color:#FF00FF"/>
		<stop  offset="1" style="stop-color:#734CE2"/>
	</radialGradient>
	<path class="st21" d="M328.6,191.3c4.4,0,8,3.6,8,8s-3.6,8-8,8c-4.4,0-8-3.6-8-8S324.2,191.3,328.6,191.3z"/>
	
		<radialGradient id="SVGID_22_" cx="-881.5197" cy="701.6561" r="178.2502" gradientTransform="matrix(0.9717 0 0 -0.9754 1029.8016 884.1757)" gradientUnits="userSpaceOnUse">
		<stop  offset="0" style="stop-color:#00A2E9"/>
		<stop  offset="0" style="stop-color:#FF00FF"/>
		<stop  offset="1" style="stop-color:#734CE2"/>
	</radialGradient>
	<path class="st22" d="M96.2,223.5c-11.3,0-20.5,9.2-20.5,20.6c0,11.4,9.2,20.6,20.5,20.6c11.3,0,20.5-9.2,20.5-20.6
		C116.7,232.7,107.5,223.5,96.2,223.5z"/>
	
		<radialGradient id="SVGID_23_" cx="-881.5197" cy="701.6561" r="178.2502" gradientTransform="matrix(0.9717 0 0 -0.9754 1029.8016 884.1757)" gradientUnits="userSpaceOnUse">
		<stop  offset="0" style="stop-color:#00A2E9"/>
		<stop  offset="0" style="stop-color:#FF00FF"/>
		<stop  offset="1" style="stop-color:#734CE2"/>
	</radialGradient>
	<path class="st23" d="M251.1,223.5c-11.3,0-20.5,9.2-20.5,20.6c0,11.4,9.2,20.6,20.5,20.6c11.3,0,20.5-9.2,20.5-20.6
		C271.6,232.7,262.4,223.5,251.1,223.5z"/>
	
		<radialGradient id="SVGID_24_" cx="-881.5197" cy="701.6561" r="178.2502" gradientTransform="matrix(0.9717 0 0 -0.9754 1029.8016 884.1757)" gradientUnits="userSpaceOnUse">
		<stop  offset="0" style="stop-color:#00A2E9"/>
		<stop  offset="0" style="stop-color:#FF00FF"/>
		<stop  offset="1" style="stop-color:#734CE2"/>
	</radialGradient>
	<path class="st24" d="M96.2,233.3c5.9,0,10.7,4.8,10.7,10.7c0,5.9-4.8,10.7-10.7,10.7S85.5,250,85.5,244
		C85.5,238.1,90.3,233.3,96.2,233.3z"/>
	
		<radialGradient id="SVGID_25_" cx="-881.5197" cy="701.6561" r="178.2502" gradientTransform="matrix(0.9717 0 0 -0.9754 1029.8016 884.1757)" gradientUnits="userSpaceOnUse">
		<stop  offset="0" style="stop-color:#00A2E9"/>
		<stop  offset="0" style="stop-color:#FF00FF"/>
		<stop  offset="1" style="stop-color:#734CE2"/>
	</radialGradient>
	<path class="st25" d="M251.1,233.3c5.9,0,10.7,4.8,10.7,10.7c0,5.9-4.8,10.7-10.7,10.7s-10.7-4.8-10.7-10.7
		C240.4,238.1,245.2,233.3,251.1,233.3z"/>
	
		<radialGradient id="SVGID_26_" cx="-881.5197" cy="701.6561" r="178.2502" gradientTransform="matrix(0.9717 0 0 -0.9754 1029.8016 884.1757)" gradientUnits="userSpaceOnUse">
		<stop  offset="0" style="stop-color:#00A2E9"/>
		<stop  offset="0" style="stop-color:#FF00FF"/>
		<stop  offset="1" style="stop-color:#734CE2"/>
	</radialGradient>
	<path class="st26" d="M172.8,268.2c-11.3,0-20.5,9.2-20.5,20.6c0,11.4,9.2,20.6,20.5,20.6c11.3,0,20.5-9.2,20.5-20.6
		C193.2,277.4,184.1,268.2,172.8,268.2z"/>
	
		<radialGradient id="SVGID_27_" cx="-881.5197" cy="701.6561" r="178.2502" gradientTransform="matrix(0.9717 0 0 -0.9754 1029.8016 884.1757)" gradientUnits="userSpaceOnUse">
		<stop  offset="0" style="stop-color:#00A2E9"/>
		<stop  offset="0" style="stop-color:#FF00FF"/>
		<stop  offset="1" style="stop-color:#734CE2"/>
	</radialGradient>
	<path class="st27" d="M17.8,271.7c-9.8,0-17.8,8-17.8,17.9s8,17.9,17.8,17.9c9.8,0,17.8-8,17.8-17.9S27.6,271.7,17.8,271.7z"/>
	
		<radialGradient id="SVGID_28_" cx="-881.5197" cy="701.6561" r="178.2502" gradientTransform="matrix(0.9717 0 0 -0.9754 1029.8016 884.1757)" gradientUnits="userSpaceOnUse">
		<stop  offset="0" style="stop-color:#00A2E9"/>
		<stop  offset="0" style="stop-color:#FF00FF"/>
		<stop  offset="1" style="stop-color:#734CE2"/>
	</radialGradient>
	<path class="st28" d="M328.6,271.7c-9.8,0-17.8,8-17.8,17.9s8,17.9,17.8,17.9c9.8,0,17.8-8,17.8-17.9S338.4,271.7,328.6,271.7z"/>
	
		<radialGradient id="SVGID_29_" cx="-881.5197" cy="701.6561" r="178.2502" gradientTransform="matrix(0.9717 0 0 -0.9754 1029.8016 884.1757)" gradientUnits="userSpaceOnUse">
		<stop  offset="0" style="stop-color:#00A2E9"/>
		<stop  offset="0" style="stop-color:#FF00FF"/>
		<stop  offset="1" style="stop-color:#734CE2"/>
	</radialGradient>
	<path class="st29" d="M172.8,278c5.9,0,10.7,4.8,10.7,10.7c0,5.9-4.8,10.7-10.7,10.7c-5.9,0-10.7-4.8-10.7-10.7
		C162.1,282.8,166.9,278,172.8,278z"/>
	
		<radialGradient id="SVGID_30_" cx="-881.5197" cy="701.6561" r="178.2502" gradientTransform="matrix(0.9717 0 0 -0.9754 1029.8016 884.1757)" gradientUnits="userSpaceOnUse">
		<stop  offset="0" style="stop-color:#00A2E9"/>
		<stop  offset="0" style="stop-color:#FF00FF"/>
		<stop  offset="1" style="stop-color:#734CE2"/>
	</radialGradient>
	<path class="st30" d="M17.8,281.6c4.4,0,8,3.6,8,8c0,4.4-3.6,8-8,8c-4.4,0-8-3.6-8-8C9.8,285.2,13.4,281.6,17.8,281.6z"/>
	
		<radialGradient id="SVGID_31_" cx="-881.5197" cy="701.6561" r="178.2502" gradientTransform="matrix(0.9717 0 0 -0.9754 1029.8016 884.1757)" gradientUnits="userSpaceOnUse">
		<stop  offset="0" style="stop-color:#00A2E9"/>
		<stop  offset="0" style="stop-color:#FF00FF"/>
		<stop  offset="1" style="stop-color:#734CE2"/>
	</radialGradient>
	<path class="st31" d="M328.6,281.6c4.4,0,8,3.6,8,8c0,4.4-3.6,8-8,8c-4.4,0-8-3.6-8-8C320.6,285.2,324.2,281.6,328.6,281.6z"/>
	
		<radialGradient id="SVGID_32_" cx="-881.5197" cy="701.6561" r="178.2502" gradientTransform="matrix(0.9717 0 0 -0.9754 1029.8016 884.1757)" gradientUnits="userSpaceOnUse">
		<stop  offset="0" style="stop-color:#00A2E9"/>
		<stop  offset="0" style="stop-color:#FF00FF"/>
		<stop  offset="1" style="stop-color:#734CE2"/>
	</radialGradient>
	<path class="st32" d="M96.2,316.4c-9.8,0-17.8,8-17.8,17.9c0,9.9,8,17.9,17.8,17.9c9.8,0,17.8-8,17.8-17.9
		C114,324.4,106,316.4,96.2,316.4z"/>
	
		<radialGradient id="SVGID_33_" cx="-881.5197" cy="701.6561" r="178.2502" gradientTransform="matrix(0.9717 0 0 -0.9754 1029.8016 884.1757)" gradientUnits="userSpaceOnUse">
		<stop  offset="0" style="stop-color:#00A2E9"/>
		<stop  offset="0" style="stop-color:#FF00FF"/>
		<stop  offset="1" style="stop-color:#734CE2"/>
	</radialGradient>
	<path class="st33" d="M251.1,317.3c-9.8,0-17.8,8-17.8,17.9s8,17.9,17.8,17.9c9.8,0,17.8-8,17.8-17.9S261,317.3,251.1,317.3z"/>
	
		<radialGradient id="SVGID_34_" cx="-881.5197" cy="701.6561" r="178.2502" gradientTransform="matrix(0.9717 0 0 -0.9754 1029.8016 884.1757)" gradientUnits="userSpaceOnUse">
		<stop  offset="0" style="stop-color:#00A2E9"/>
		<stop  offset="0" style="stop-color:#FF00FF"/>
		<stop  offset="1" style="stop-color:#734CE2"/>
	</radialGradient>
	<path class="st34" d="M96.2,326.3c4.4,0,8,3.6,8,8c0,4.4-3.6,8-8,8c-4.4,0-8-3.6-8-8C88.2,329.9,91.8,326.3,96.2,326.3z"/>
	
		<radialGradient id="SVGID_35_" cx="-881.5197" cy="701.6561" r="178.2502" gradientTransform="matrix(0.9717 0 0 -0.9754 1029.8016 884.1757)" gradientUnits="userSpaceOnUse">
		<stop  offset="0" style="stop-color:#00A2E9"/>
		<stop  offset="0" style="stop-color:#FF00FF"/>
		<stop  offset="1" style="stop-color:#734CE2"/>
	</radialGradient>
	<path class="st35" d="M251.1,327.2c4.4,0,8,3.6,8,8s-3.6,8-8,8c-4.4,0-8-3.6-8-8S246.7,327.2,251.1,327.2z"/>
	
		<radialGradient id="SVGID_36_" cx="-881.5197" cy="701.6561" r="178.2502" gradientTransform="matrix(0.9717 0 0 -0.9754 1029.8016 884.1757)" gradientUnits="userSpaceOnUse">
		<stop  offset="0" style="stop-color:#00A2E9"/>
		<stop  offset="0" style="stop-color:#FF00FF"/>
		<stop  offset="1" style="stop-color:#734CE2"/>
	</radialGradient>
	<path class="st36" d="M172.8,363.8c-9.8,0-17.8,8-17.8,17.9s8,17.9,17.8,17.9s17.8-8,17.8-17.9S182.6,363.8,172.8,363.8z"/>
	
		<radialGradient id="SVGID_37_" cx="-881.5197" cy="701.6561" r="178.2502" gradientTransform="matrix(0.9717 0 0 -0.9754 1029.8016 884.1757)" gradientUnits="userSpaceOnUse">
		<stop  offset="0" style="stop-color:#00A2E9"/>
		<stop  offset="0" style="stop-color:#FF00FF"/>
		<stop  offset="1" style="stop-color:#734CE2"/>
	</radialGradient>
	<path class="st37" d="M172.8,373.7c4.4,0,8,3.6,8,8s-3.6,8-8,8s-8-3.6-8-8S168.3,373.7,172.8,373.7z"/>
	
		<radialGradient id="SVGID_38_" cx="-881.5197" cy="701.6561" r="178.2502" gradientTransform="matrix(0.9717 0 0 -0.9754 1029.8016 884.1757)" gradientUnits="userSpaceOnUse">
		<stop  offset="0" style="stop-color:#00A2E9"/>
		<stop  offset="0" style="stop-color:#FF00FF"/>
		<stop  offset="1" style="stop-color:#734CE2"/>
	</radialGradient>
	<path class="st38" d="M244,150.9l-63.2,38.4l5.1,8.4l63.2-38.4L244,150.9z"/>
	
		<radialGradient id="SVGID_39_" cx="-881.5197" cy="701.6561" r="178.2502" gradientTransform="matrix(0.9717 0 0 -0.9754 1029.8016 884.1757)" gradientUnits="userSpaceOnUse">
		<stop  offset="0" style="stop-color:#00A2E9"/>
		<stop  offset="0" style="stop-color:#FF00FF"/>
		<stop  offset="1" style="stop-color:#734CE2"/>
	</radialGradient>
	<path class="st39" d="M101.2,150l-5.3,8.3l64.1,41.1l5.3-8.3L101.2,150z"/>
	
		<radialGradient id="SVGID_40_" cx="-881.5197" cy="701.6561" r="178.2502" gradientTransform="matrix(0.9717 0 0 -0.9754 1029.8016 884.1757)" gradientUnits="userSpaceOnUse">
		<stop  offset="0" style="stop-color:#00A2E9"/>
		<stop  offset="0" style="stop-color:#FF00FF"/>
		<stop  offset="1" style="stop-color:#734CE2"/>
	</radialGradient>
	<path class="st40" d="M84.1,154.4L25.3,191l5.2,8.4l58.8-36.6L84.1,154.4z"/>
	
		<radialGradient id="SVGID_41_" cx="-881.5197" cy="701.6561" r="178.2502" gradientTransform="matrix(0.9717 0 0 -0.9754 1029.8016 884.1757)" gradientUnits="userSpaceOnUse">
		<stop  offset="0" style="stop-color:#00A2E9"/>
		<stop  offset="0" style="stop-color:#FF00FF"/>
		<stop  offset="1" style="stop-color:#734CE2"/>
	</radialGradient>
	<path class="st41" d="M322.8,197.2l-63.2,38.4l5.1,8.4l63.2-38.4L322.8,197.2z"/>
	
		<radialGradient id="SVGID_42_" cx="-881.5197" cy="701.6561" r="178.2502" gradientTransform="matrix(0.9717 0 0 -0.9754 1029.8016 884.1757)" gradientUnits="userSpaceOnUse">
		<stop  offset="0" style="stop-color:#00A2E9"/>
		<stop  offset="0" style="stop-color:#FF00FF"/>
		<stop  offset="1" style="stop-color:#734CE2"/>
	</radialGradient>
	<path class="st42" d="M162.6,200.8l-63.2,38.4l5.1,8.4l63.2-38.4L162.6,200.8z"/>
	
		<radialGradient id="SVGID_43_" cx="-881.5197" cy="701.6561" r="178.2502" gradientTransform="matrix(0.9717 0 0 -0.9754 1029.8016 884.1757)" gradientUnits="userSpaceOnUse">
		<stop  offset="0" style="stop-color:#00A2E9"/>
		<stop  offset="0" style="stop-color:#FF00FF"/>
		<stop  offset="1" style="stop-color:#734CE2"/>
	</radialGradient>
	<path class="st43" d="M185,199.7l-5.3,8.3l64.1,41.1l5.3-8.3L185,199.7z"/>
	
		<radialGradient id="SVGID_44_" cx="-881.5197" cy="701.6561" r="178.2502" gradientTransform="matrix(0.9717 0 0 -0.9754 1029.8016 884.1757)" gradientUnits="userSpaceOnUse">
		<stop  offset="0" style="stop-color:#00A2E9"/>
		<stop  offset="0" style="stop-color:#FF00FF"/>
		<stop  offset="1" style="stop-color:#734CE2"/>
	</radialGradient>
	<path class="st44" d="M261.5,151.4l-5.3,8.3l64.1,41.1l5.3-8.3L261.5,151.4z"/>
	
		<radialGradient id="SVGID_45_" cx="-881.5197" cy="701.6561" r="178.2502" gradientTransform="matrix(0.9717 0 0 -0.9754 1029.8016 884.1757)" gradientUnits="userSpaceOnUse">
		<stop  offset="0" style="stop-color:#00A2E9"/>
		<stop  offset="0" style="stop-color:#FF00FF"/>
		<stop  offset="1" style="stop-color:#734CE2"/>
	</radialGradient>
	<path class="st45" d="M25.2,198.3l-5.3,8.3L84,247.7l5.3-8.3L25.2,198.3z"/>
</g>
<g>
	<g>
		<linearGradient id="SVGID_46_" gradientUnits="userSpaceOnUse" x1="444.1283" y1="221.7121" x2="1352.3763" y2="221.7121">
			<stop  offset="0" style="stop-color:#734CE2"/>
			<stop  offset="0.1348" style="stop-color:#7D46E4"/>
			<stop  offset="0.3658" style="stop-color:#9938EA"/>
			<stop  offset="0.6647" style="stop-color:#C51FF3"/>
			<stop  offset="1" style="stop-color:#FF00FF"/>
		</linearGradient>
		<path class="st46" d="M540.3,160.7c-0.9-7.6-4.4-13.5-10.6-17.7c-6.2-4.2-14-6.3-23.4-6.3c-6.7,0-12.6,1.1-17.5,3.2
			c-4.9,2.1-8.7,5-11.4,8.7c-2.7,3.7-4.1,7.8-4.1,12.5c0,3.9,0.9,7.3,2.8,10.1c1.8,2.8,4.3,5.2,7.3,7.1c3,1.9,6.3,3.5,9.8,4.7
			c3.5,1.3,6.8,2.3,10,3.1l16.1,4.2c5.2,1.3,10.6,3,16.1,5.2c5.5,2.2,10.6,5.1,15.3,8.7c4.7,3.6,8.5,8,11.4,13.3s4.4,11.6,4.4,19
			c0,9.3-2.4,17.6-7.2,24.8c-4.8,7.2-11.7,12.9-20.8,17.1c-9.1,4.2-20,6.3-32.9,6.3c-12.3,0-23-2-31.9-5.9s-16-9.5-21.1-16.7
			c-5.1-7.2-7.9-15.7-8.4-25.6H469c0.5,5.9,2.4,10.9,5.8,14.8c3.4,3.9,7.8,6.8,13.1,8.7c5.3,1.9,11.2,2.8,17.5,2.8
			c7,0,13.3-1.1,18.7-3.3c5.5-2.2,9.8-5.3,13-9.3c3.2-4,4.7-8.7,4.7-14c0-4.9-1.4-8.9-4.1-12c-2.8-3.1-6.5-5.7-11.2-7.7
			c-4.7-2-10-3.8-15.9-5.4l-19.4-5.3c-13.2-3.6-23.6-8.9-31.3-15.8c-7.7-7-11.5-16.2-11.5-27.6c0-9.5,2.6-17.7,7.7-24.8
			c5.1-7.1,12.1-12.6,20.9-16.5c8.8-3.9,18.7-5.9,29.7-5.9c11.1,0,21,2,29.5,5.9c8.5,3.9,15.3,9.3,20.2,16.1
			c4.9,6.8,7.5,14.6,7.7,23.5H540.3z"/>
		<linearGradient id="SVGID_47_" gradientUnits="userSpaceOnUse" x1="444.1283" y1="221.7121" x2="1352.3763" y2="221.7121">
			<stop  offset="0" style="stop-color:#734CE2"/>
			<stop  offset="0.1348" style="stop-color:#7D46E4"/>
			<stop  offset="0.3658" style="stop-color:#9938EA"/>
			<stop  offset="0.6647" style="stop-color:#C51FF3"/>
			<stop  offset="1" style="stop-color:#FF00FF"/>
		</linearGradient>
		<path class="st47" d="M609.3,328.1c-3.6,0-6.8-0.3-9.8-0.8c-2.9-0.6-5.1-1.2-6.6-1.8l5.8-19.7c4.4,1.2,8.3,1.7,11.7,1.5
			c3.4-0.2,6.5-1.4,9.1-3.9c2.6-2.4,5-6.3,7-11.8l3-8.2l-45.1-124.9h25.7l31.2,95.7h1.3l31.2-95.7h25.8l-50.8,139.7
			c-2.4,6.4-5.4,11.9-9,16.3c-3.6,4.5-8,7.8-13,10.1C621.8,327,615.9,328.1,609.3,328.1z"/>
		<linearGradient id="SVGID_48_" gradientUnits="userSpaceOnUse" x1="444.1283" y1="221.7121" x2="1352.3763" y2="221.7121">
			<stop  offset="0" style="stop-color:#734CE2"/>
			<stop  offset="0.1348" style="stop-color:#7D46E4"/>
			<stop  offset="0.3658" style="stop-color:#9938EA"/>
			<stop  offset="0.6647" style="stop-color:#C51FF3"/>
			<stop  offset="1" style="stop-color:#FF00FF"/>
		</linearGradient>
		<path class="st48" d="M746.1,208.7v73.2h-24V158.6h23v20.1h1.5c2.8-6.5,7.3-11.8,13.4-15.7c6.1-4,13.7-5.9,23-5.9
			c8.4,0,15.8,1.8,22.1,5.3c6.3,3.5,11.2,8.7,14.7,15.6c3.5,6.9,5.2,15.4,5.2,25.6v78.4h-24v-75.5c0-8.9-2.3-15.9-7-21
			c-4.7-5.1-11-7.6-19.2-7.6c-5.6,0-10.5,1.2-14.8,3.6c-4.3,2.4-7.7,5.9-10.2,10.6C747.4,196.6,746.1,202.2,746.1,208.7z"/>
		<linearGradient id="SVGID_49_" gradientUnits="userSpaceOnUse" x1="444.1283" y1="221.7121" x2="1352.3763" y2="221.7121">
			<stop  offset="0" style="stop-color:#734CE2"/>
			<stop  offset="0.1348" style="stop-color:#7D46E4"/>
			<stop  offset="0.3658" style="stop-color:#9938EA"/>
			<stop  offset="0.6647" style="stop-color:#C51FF3"/>
			<stop  offset="1" style="stop-color:#FF00FF"/>
		</linearGradient>
		<path class="st49" d="M893,284.6c-7.8,0-14.9-1.5-21.2-4.4c-6.3-2.9-11.3-7.2-15-12.7c-3.7-5.6-5.5-12.4-5.5-20.5
			c0-7,1.3-12.7,4-17.2c2.7-4.5,6.3-8.1,10.8-10.7c4.5-2.6,9.6-4.6,15.2-5.9c5.6-1.3,11.3-2.4,17.2-3c7.4-0.9,13.4-1.6,18-2.1
			s7.9-1.5,10-2.8c2.1-1.3,3.1-3.4,3.1-6.3v-0.6c0-7-2-12.4-5.9-16.3s-9.8-5.8-17.5-5.8c-8.1,0-14.4,1.8-19.1,5.3
			c-4.6,3.6-7.8,7.5-9.6,11.8l-22.6-5.1c2.7-7.5,6.6-13.5,11.8-18.2c5.2-4.6,11.1-8,17.9-10.1c6.7-2.1,13.8-3.2,21.3-3.2
			c4.9,0,10.2,0.6,15.7,1.7c5.5,1.2,10.7,3.2,15.6,6.3c4.8,3,8.8,7.4,11.9,13c3.1,5.6,4.7,13,4.7,22v81.9h-23.4v-16.9h-1
			c-1.6,3.1-3.9,6.2-7,9.1c-3.1,3-7.1,5.5-12,7.5C905.6,283.6,899.8,284.6,893,284.6z M898.2,265.4c6.6,0,12.3-1.3,17.1-3.9
			c4.7-2.6,8.3-6.1,10.8-10.3c2.5-4.3,3.7-8.8,3.7-13.7v-15.9c-0.9,0.9-2.5,1.6-4.9,2.4c-2.4,0.7-5.2,1.3-8.3,1.8
			c-3.1,0.5-6.1,1-9.1,1.4c-2.9,0.4-5.4,0.7-7.4,1c-4.7,0.6-8.9,1.6-12.7,3c-3.8,1.4-6.9,3.4-9.1,6c-2.3,2.6-3.4,6-3.4,10.3
			c0,5.9,2.2,10.4,6.6,13.4C885.8,263.9,891.4,265.4,898.2,265.4z"/>
		<linearGradient id="SVGID_50_" gradientUnits="userSpaceOnUse" x1="444.1283" y1="221.7121" x2="1352.3763" y2="221.7121">
			<stop  offset="0" style="stop-color:#734CE2"/>
			<stop  offset="0.1348" style="stop-color:#7D46E4"/>
			<stop  offset="0.3658" style="stop-color:#9938EA"/>
			<stop  offset="0.6647" style="stop-color:#C51FF3"/>
			<stop  offset="1" style="stop-color:#FF00FF"/>
		</linearGradient>
		<path class="st50" d="M985.8,328.1V158.6h23.4v20h2c1.4-2.6,3.4-5.5,6-8.9c2.6-3.4,6.3-6.3,10.9-8.9c4.7-2.5,10.8-3.8,18.5-3.8
			c10,0,18.8,2.5,26.6,7.5c7.8,5,14,12.3,18.4,21.7c4.5,9.5,6.7,20.9,6.7,34.2s-2.2,24.7-6.7,34.2c-4.4,9.5-10.5,16.8-18.3,21.9
			c-7.8,5.1-16.6,7.7-26.6,7.7c-7.5,0-13.6-1.3-18.3-3.8c-4.7-2.5-8.4-5.5-11.1-8.8c-2.7-3.4-4.7-6.4-6.2-9h-1.4v65.4H985.8z
			 M1009.3,220.3c0,8.7,1.3,16.3,3.8,22.8c2.5,6.5,6.2,11.6,10.9,15.3c4.8,3.7,10.6,5.5,17.5,5.5c7.2,0,13.2-1.9,18-5.7
			c4.8-3.8,8.5-9,11-15.6c2.5-6.6,3.7-14,3.7-22.2c0-8.1-1.2-15.4-3.7-21.9s-6.1-11.6-10.9-15.3c-4.8-3.7-10.9-5.6-18.1-5.6
			c-7,0-12.8,1.8-17.6,5.4c-4.8,3.6-8.4,8.6-10.9,15C1010.5,204.2,1009.3,211.7,1009.3,220.3z"/>
		<linearGradient id="SVGID_51_" gradientUnits="userSpaceOnUse" x1="444.1283" y1="221.7121" x2="1352.3763" y2="221.7121">
			<stop  offset="0" style="stop-color:#734CE2"/>
			<stop  offset="0.1348" style="stop-color:#7D46E4"/>
			<stop  offset="0.3658" style="stop-color:#9938EA"/>
			<stop  offset="0.6647" style="stop-color:#C51FF3"/>
			<stop  offset="1" style="stop-color:#FF00FF"/>
		</linearGradient>
		<path class="st51" d="M1217.6,188.7l-21.7,3.9c-0.9-2.8-2.3-5.4-4.3-7.9c-2-2.5-4.6-4.6-7.9-6.2c-3.3-1.6-7.5-2.4-12.4-2.4
			c-6.8,0-12.5,1.5-17,4.5c-4.5,3-6.8,6.9-6.8,11.7c0,4.1,1.5,7.4,4.6,10c3,2.5,8,4.6,14.8,6.2l19.6,4.5
			c11.3,2.6,19.8,6.7,25.4,12.1s8.3,12.5,8.3,21.3c0,7.4-2.1,14-6.4,19.7c-4.3,5.8-10.2,10.3-17.7,13.5c-7.6,3.3-16.3,4.9-26.3,4.9
			c-13.8,0-25.1-3-33.8-8.9c-8.7-5.9-14.1-14.3-16.1-25.2l23.2-3.5c1.4,6,4.4,10.6,8.9,13.7c4.5,3.1,10.4,4.6,17.6,4.6
			c7.9,0,14.2-1.6,18.9-4.9c4.7-3.3,7.1-7.3,7.1-12.1c0-3.9-1.4-7.1-4.3-9.7c-2.9-2.6-7.2-4.6-13.1-5.9l-20.9-4.6
			c-11.5-2.6-20-6.8-25.5-12.5c-5.5-5.7-8.2-13-8.2-21.7c0-7.3,2-13.6,6.1-19.1c4.1-5.5,9.7-9.7,16.9-12.8
			c7.2-3.1,15.4-4.6,24.6-4.6c13.3,0,23.8,2.9,31.5,8.6C1210.1,171.4,1215.2,179.1,1217.6,188.7z"/>
		<linearGradient id="SVGID_52_" gradientUnits="userSpaceOnUse" x1="444.1283" y1="221.7121" x2="1352.3763" y2="221.7121">
			<stop  offset="0" style="stop-color:#734CE2"/>
			<stop  offset="0.1348" style="stop-color:#7D46E4"/>
			<stop  offset="0.3658" style="stop-color:#9938EA"/>
			<stop  offset="0.6647" style="stop-color:#C51FF3"/>
			<stop  offset="1" style="stop-color:#FF00FF"/>
		</linearGradient>
		<path class="st52" d="M1299.5,284.4c-12.1,0-22.6-2.6-31.3-7.8s-15.5-12.6-20.2-22.1c-4.7-9.5-7.1-20.6-7.1-33.4
			c0-12.6,2.4-23.8,7.1-33.4c4.7-9.6,11.4-17.1,19.9-22.6c8.5-5.4,18.5-8.1,30-8.1c7,0,13.7,1.2,20.2,3.5
			c6.5,2.3,12.4,5.9,17.6,10.8c5.2,4.9,9.3,11.3,12.3,19.1c3,7.8,4.5,17.3,4.5,28.5v8.5h-98v-18h74.5c0-6.3-1.3-11.9-3.9-16.8
			s-6.2-8.8-10.8-11.6s-10-4.3-16.3-4.3c-6.7,0-12.6,1.6-17.6,4.9c-5,3.3-8.9,7.6-11.6,12.8c-2.7,5.3-4.1,11-4.1,17.1v14
			c0,8.2,1.5,15.2,4.4,21c2.9,5.8,7,10.2,12.2,13.2c5.2,3,11.4,4.5,18.4,4.5c4.5,0,8.7-0.7,12.4-2c3.7-1.3,7-3.3,9.7-5.9
			c2.7-2.6,4.8-5.9,6.3-9.7l22.7,4.1c-1.8,6.7-5.1,12.5-9.8,17.5c-4.7,5-10.5,8.9-17.6,11.6C1316.5,283,1308.5,284.4,1299.5,284.4z"
			/>
	</g>
</g>
</svg>
